# xmcd CD database file
# Copyright (C) 1993-1998 Ti Kan
# 
# Track frame offsets:
#     150
#     13947
#     25827
#     36975
#     48345
#     61695
#     73582
#     84180
#     96782
#     111050
#     121340
#     134147
# 
# Disc length: 1954 seconds
# 
# Revision: 1
# Processed by: cddbd v1.4b41PL1 Copyright (c) Steve Scherf et al.
# Submitted via: DiscPlay 4.0.4
# 
DISCID=9d07a00c
DTITLE=Los Guaracheros de Oriente - Amarrao Con Pe
DYEAR=1900
DGENRE=
TTITLE0=Sacrificio
TTITLE1=Guajiro Moruna
TTITLE2=Amarrao Con Pe
TTITLE3=Sombras Que Besan
TTITLE4=Chicharrito
TTITLE5=Tres Cositas
TTITLE6=Migajas de Amor
TTITLE7=Virgencita Adorada
TTITLE8=Cien Veces
TTITLE9=Pobre Bohemia
TTITLE10=Carino De Madre
TTITLE11=Amor De Bartola
EXTD=
EXTT0=
EXTT1=
EXTT2=
EXTT3=
EXTT4=
EXTT5=
EXTT6=
EXTT7=
EXTT8=
EXTT9=
EXTT10=
EXTT11=
PLAYORDER=
